<svg xmlns="http://www.w3.org/2000/svg" viewBox="0 0 2030.87 689.97"><defs><style>.cls-1{fill:#000021;}.cls-2{opacity:0.5;}.cls-3{fill:#f4f4f4;}.cls-4{font-size:23.07px;fill:#fff;font-family:MyriadPro-Regular, Myriad Pro;}</style></defs><title>Artboard 3</title><g id="Layer_1" data-name="Layer 1"><rect class="cls-1" width="2030.87" height="688.47"/></g><g id="Layer_3" data-name="Layer 3"><g class="cls-2"><path class="cls-3" d="M1301,89.55c6.43,0,6.45-10,0-10s-6.45,10,0,10Z"/></g><g class="cls-2"><path class="cls-3" d="M1451,167.55c6.43,0,6.45-10,0-10s-6.45,10,0,10Z"/></g><g class="cls-2"><path class="cls-3" d="M1001,147.55c6.43,0,6.45-10,0-10s-6.45,10,0,10Z"/></g><g class="cls-2"><path class="cls-3" d="M1429,387.55c6.43,0,6.45-10,0-10s-6.45,10,0,10Z"/></g><g class="cls-2"><path class="cls-3" d="M1679,183.55c6.43,0,6.45-10,0-10s-6.45,10,0,10Z"/></g><g class="cls-2"><path class="cls-3" d="M1757,437.55c6.43,0,6.45-10,0-10s-6.45,10,0,10Z"/></g><g class="cls-2"><path class="cls-3" d="M1773,239.55c6.43,0,6.45-10,0-10s-6.45,10,0,10Z"/></g><g class="cls-2"><path class="cls-3" d="M1255,253.55c6.43,0,6.45-10,0-10s-6.45,10,0,10Z"/></g><g class="cls-2"><path class="cls-3" d="M1127,475.55c6.43,0,6.45-10,0-10s-6.45,10,0,10Z"/></g><g class="cls-2"><path class="cls-3" d="M1387,525.55c6.43,0,6.45-10,0-10s-6.45,10,0,10Z"/></g><g class="cls-2"><path class="cls-3" d="M1567,299.55c6.43,0,6.45-10,0-10s-6.45,10,0,10Z"/></g><g class="cls-2"><path class="cls-3" d="M847,101.55c6.43,0,6.45-10,0-10s-6.45,10,0,10Z"/></g><g class="cls-2"><path class="cls-3" d="M737,353.55c6.43,0,6.45-10,0-10s-6.45,10,0,10Z"/></g><g class="cls-2"><path class="cls-3" d="M837,611.55c6.43,0,6.45-10,0-10s-6.45,10,0,10Z"/></g><g class="cls-2"><path class="cls-3" d="M915,247.55c6.43,0,6.45-10,0-10s-6.45,10,0,10Z"/></g><g class="cls-2"><path class="cls-3" d="M1021,307.55c6.43,0,6.45-10,0-10s-6.45,10,0,10Z"/></g><g class="cls-2"><path class="cls-3" d="M525,137.55c6.43,0,6.45-10,0-10s-6.45,10,0,10Z"/></g><g class="cls-2"><path class="cls-3" d="M293,105.55c6.43,0,6.45-10,0-10s-6.45,10,0,10Z"/></g><g class="cls-2"><path class="cls-3" d="M163,173.55c6.43,0,6.45-10,0-10s-6.45,10,0,10Z"/></g><g class="cls-2"><path class="cls-3" d="M259,443.55c6.43,0,6.45-10,0-10s-6.45,10,0,10Z"/></g><g class="cls-2"><path class="cls-3" d="M335,275.55c6.43,0,6.45-10,0-10s-6.45,10,0,10Z"/></g><g class="cls-2"><path class="cls-3" d="M267,201.55c6.43,0,6.45-10,0-10s-6.45,10,0,10Z"/></g><g class="cls-2"><path class="cls-3" d="M193,307.55c6.43,0,6.45-10,0-10s-6.45,10,0,10Z"/></g><g class="cls-2"><path class="cls-3" d="M145,459.55c6.43,0,6.45-10,0-10s-6.45,10,0,10Z"/></g><g class="cls-2"><path class="cls-3" d="M679,637.55c6.43,0,6.45-10,0-10s-6.45,10,0,10Z"/></g><g class="cls-2"><path class="cls-3" d="M547,533.55c6.43,0,6.45-10,0-10s-6.45,10,0,10Z"/></g><g class="cls-2"><path class="cls-3" d="M495,347.55c6.43,0,6.45-10,0-10s-6.45,10,0,10Z"/></g><g class="cls-2"><path class="cls-3" d="M587,275.55c6.43,0,6.45-10,0-10s-6.45,10,0,10Z"/></g><g class="cls-2"><path class="cls-3" d="M677,179.55c6.43,0,6.45-10,0-10s-6.45,10,0,10Z"/></g><g class="cls-2"><path class="cls-3" d="M769,209.55c6.43,0,6.45-10,0-10s-6.45,10,0,10Z"/></g><g class="cls-2"><path class="cls-3" d="M1635,649.55c6.43,0,6.45-10,0-10s-6.45,10,0,10Z"/></g><g class="cls-2"><path class="cls-3" d="M1599,435.55c6.43,0,6.45-10,0-10s-6.45,10,0,10Z"/></g><g class="cls-2"><path class="cls-3" d="M1179,589.55c6.43,0,6.45-10,0-10s-6.45,10,0,10Z"/></g><g class="cls-2"><path class="cls-3" d="M869,455.55c6.43,0,6.45-10,0-10s-6.45,10,0,10Z"/></g><g class="cls-2"><path class="cls-3" d="M693,495.55c6.43,0,6.45-10,0-10s-6.45,10,0,10Z"/></g><g class="cls-2"><path class="cls-3" d="M1915,69.55c6.43,0,6.45-10,0-10s-6.45,10,0,10Z"/></g><g class="cls-2"><path class="cls-3" d="M1713,53.55c6.43,0,6.45-10,0-10s-6.45,10,0,10Z"/></g><g class="cls-2"><path class="cls-3" d="M1505,63.55c6.43,0,6.45-10,0-10s-6.45,10,0,10Z"/></g><g class="cls-2"><path class="cls-3" d="M1549,169.55c6.43,0,6.45-10,0-10s-6.45,10,0,10Z"/></g><g class="cls-2"><path class="cls-3" d="M1947,235.55c6.43,0,6.45-10,0-10s-6.45,10,0,10Z"/></g><g class="cls-2"><path class="cls-3" d="M1977,427.55c6.43,0,6.45-10,0-10s-6.45,10,0,10Z"/></g><g class="cls-2"><path class="cls-3" d="M1879,329.55c6.43,0,6.45-10,0-10s-6.45,10,0,10Z"/></g><g class="cls-2"><path class="cls-3" d="M1941,559.55c6.43,0,6.45-10,0-10s-6.45,10,0,10Z"/></g><g class="cls-2"><path class="cls-3" d="M1865,633.55c6.43,0,6.45-10,0-10s-6.45,10,0,10Z"/></g><g class="cls-2"><path class="cls-3" d="M1715,535.55c6.43,0,6.45-10,0-10s-6.45,10,0,10Z"/></g><g class="cls-2"><path class="cls-3" d="M1465,581.55c6.43,0,6.45-10,0-10s-6.45,10,0,10Z"/></g><g class="cls-2"><path class="cls-3" d="M1329,631.55c6.43,0,6.45-10,0-10s-6.45,10,0,10Z"/></g><g class="cls-2"><path class="cls-3" d="M1275,401.55c6.43,0,6.45-10,0-10s-6.45,10,0,10Z"/></g><g class="cls-2"><path class="cls-3" d="M1111,181.55c6.43,0,6.45-10,0-10s-6.45,10,0,10Z"/></g><g class="cls-2"><path class="cls-3" d="M1113,49.55c6.43,0,6.45-10,0-10s-6.45,10,0,10Z"/></g><g class="cls-2"><path class="cls-3" d="M203,601.55c6.43,0,6.45-10,0-10s-6.45,10,0,10Z"/></g><g class="cls-2"><path class="cls-3" d="M91,647.55c6.43,0,6.45-10,0-10s-6.45,10,0,10Z"/></g><g class="cls-2"><path class="cls-3" d="M65,527.55c6.43,0,6.45-10,0-10s-6.45,10,0,10Z"/></g><g class="cls-2"><path class="cls-3" d="M363,511.55c6.43,0,6.45-10,0-10s-6.45,10,0,10Z"/></g><g class="cls-2"><path class="cls-3" d="M99,305.55c6.43,0,6.45-10,0-10s-6.45,10,0,10Z"/></g><g class="cls-2"><path class="cls-3" d="M107,107.55c6.43,0,6.45-10,0-10s-6.45,10,0,10Z"/></g><g class="cls-2"><path class="cls-3" d="M71,183.55c6.43,0,6.45-10,0-10s-6.45,10,0,10Z"/></g><g class="cls-2"><path class="cls-3" d="M203,59.55c6.43,0,6.45-10,0-10s-6.45,10,0,10Z"/></g><g class="cls-2"><path class="cls-3" d="M71,49.55c6.43,0,6.45-10,0-10s-6.45,10,0,10Z"/></g></g><g id="Layer_4" data-name="Layer 4"><text class="cls-4" transform="translate(1368.46 192.56)">+</text><text class="cls-4" transform="translate(989.96 413.06)">+</text><text class="cls-4" transform="translate(1124.96 351.56)">+</text><text class="cls-4" transform="translate(1000.46 555.56)">+</text><text class="cls-4" transform="translate(869 341.56)">+</text><text class="cls-4" transform="translate(740.46 266.06)">+</text><text class="cls-4" transform="translate(1217.96 528.55)">+</text><text class="cls-4" transform="translate(1495.45 506.55)">+</text><text class="cls-4" transform="translate(1865 478.07)">+</text><text class="cls-4" transform="translate(806.13 535.23)">+</text><text class="cls-4" transform="translate(563 413.06)">+</text><text class="cls-4" transform="translate(693 64.55)">+</text><text class="cls-4" transform="translate(1127 106.55)">+</text></g></svg>