<svg xmlns="http://www.w3.org/2000/svg" xmlns:xlink="http://www.w3.org/1999/xlink" viewBox="0 0 1062.54 850"><defs><style>.cls-1{fill:none;}.cls-10,.cls-2{fill:#36b6e6;}.cls-3{clip-path:url(#clip-path);}.cls-4{fill:#196480;}.cls-11,.cls-5,.cls-9{fill:#fff;}.cls-6{fill:#177591;}.cls-7{fill:#e54c38;}.cls-8{fill:#898989;}.cls-10,.cls-9{fill-opacity:0.67;}.cls-10{stroke:#898989;stroke-miterlimit:10;stroke-width:2px;}.cls-11{fill-opacity:0.6;}.cls-12{fill:#ef5c0a;}.cls-13{fill:#f9cd6b;}</style><clipPath id="clip-path"><path class="cls-1" d="M3,286.71v310a32,32,0,0,0,16,27.71l268.46,155a32,32,0,0,0,32,0l268.46-155a32,32,0,0,0,16-27.71v-310a32,32,0,0,0-16-27.72L319.46,104a32,32,0,0,0-32,0L19,259A32,32,0,0,0,3,286.71Z"/></clipPath></defs><title>Artboard 1</title><g id="base"><path class="cls-2" d="M4.1,285.68v310a32,32,0,0,0,16,27.72l268.46,155a32,32,0,0,0,32,0L589,623.38a32,32,0,0,0,16-27.72v-310A32,32,0,0,0,589,258L320.56,103a32,32,0,0,0-32,0L20.1,258A32,32,0,0,0,4.1,285.68Z"/><g class="cls-3"><polygon class="cls-4" points="527.87 314.05 820.41 604.76 471.3 933.24 289.7 703.41 527.87 314.05"/><path class="cls-5" d="M71.12,326V557.37a32,32,0,0,0,16,27.71L287.46,700.75a32,32,0,0,0,32,0L519.8,585.08a32,32,0,0,0,16-27.71V326a32,32,0,0,0-16-27.72L319.46,182.66a32,32,0,0,0-32,0L87.12,298.32A32,32,0,0,0,71.12,326Z"/></g></g><g id="glass"><path class="cls-6" d="M343.52,408.64v51s74.76,34.34,59.26,91.68C402.78,551.33,446.29,443.89,343.52,408.64Z"/><path class="cls-6" d="M263.4,406.89v51s-74.77,34.34-59.26,91.68C204.14,549.58,160.63,442.14,263.4,406.89Z"/><path class="cls-7" d="M303.73,238.36v-.75l-.22.37-.22-.37v.75c-7.17,12.39-99.52,176.79-22.56,290.3H326.3C403.25,415.15,310.9,250.75,303.73,238.36Z"/><path class="cls-8" d="M326.19,528.66H280.73s-5.23,17.44,0,22.67h45.46C331.42,546.1,326.19,528.66,326.19,528.66Z"/><circle class="cls-9" cx="303.51" cy="362.38" r="23.25"/><circle class="cls-10" cx="303.51" cy="362.57" r="23.25"/><path class="cls-11" d="M293.29,347.54s-21.56,10.51,0,32.07C293.29,379.61,278.22,362.6,293.29,347.54Z"/><path class="cls-12" d="M281.8,551.33s-8.92,9.27,0,18.19,22.47,37.24,22.47,37.24,13.42-35.89,20.41-40.17,2-15.26,2-15.26Z"/><path class="cls-13" d="M290.77,551.33s-5.17,5.37,0,10.54,13,21.58,13,21.58,7.78-20.79,11.83-23.28,1.18-8.84,1.18-8.84Z"/></g></svg>