<svg id="base" xmlns="http://www.w3.org/2000/svg" xmlns:xlink="http://www.w3.org/1999/xlink" viewBox="0 0 456.79 512.04"><defs><style>.cls-1{fill:none;}.cls-2{fill:#36b6e6;}.cls-3{clip-path:url(#clip-path);}.cls-4{fill:#196480;}.cls-5{fill:#fff;}.cls-6{fill:#36e6bf;}</style><clipPath id="clip-path"><path class="cls-1" d="M3,144.56V366.25A32,32,0,0,0,19,394L211,504.8a32,32,0,0,0,32,0L435,394a32,32,0,0,0,16-27.71V144.56a32,32,0,0,0-16-27.71L243,6a32,32,0,0,0-32,0L19,116.85A32,32,0,0,0,3,144.56Z"/></clipPath></defs><title>Artboard 1</title><path class="cls-2" d="M3.82,143.79V365.48a32,32,0,0,0,16,27.71L211.81,504a32,32,0,0,0,32,0l192-110.84a32,32,0,0,0,16-27.71V143.79a32,32,0,0,0-16-27.71L243.81,5.24a32,32,0,0,0-32,0l-192,110.84A32,32,0,0,0,3.82,143.79Z"/><g class="cls-3"><polygon class="cls-4" points="394.28 160.24 612.36 376.96 352.11 621.84 216.73 450.5 394.28 160.24"/><path class="cls-5" d="M53.78,173.88V336.93a32,32,0,0,0,16,27.71L211,446.17a32,32,0,0,0,32,0l141.21-81.53a32,32,0,0,0,16-27.71v-163a32,32,0,0,0-16-27.71L243,64.64a32,32,0,0,0-32,0L69.78,146.17A32,32,0,0,0,53.78,173.88Z"/><path class="cls-6" d="M263.19,155.86h44.22L270.2,332.73c-9.14,43.6-35.37,51.84-55.5,51.84-18.6,0-36-13.11-36-32.94,0-28.36,23.79-37.2,52.76-45.74l2.74-12.81c-8.84,9.46-20.74,17.08-36.59,17.08-20.74,0-40.56-12.81-40.56-49.1,0-41.16,25.31-106.73,78.37-106.73,17.38,0,24.7,6.71,24.7,16.17Zm-55.5,201.57c6.4,0,14-5.8,18-23.79l3.66-18c-19.21,6.4-33.85,15.25-33.85,31.71C195.49,351.63,201,357.43,207.69,357.43ZM202.2,256.8c0,23.48,9.76,23.78,15.25,23.78,8.23,0,21-7.32,24.39-22.87l15.56-73.8c-.61-4-3.36-10.67-12.51-10.67C219,173.24,202.2,228.13,202.2,256.8Z"/></g></svg>