<svg xmlns="http://www.w3.org/2000/svg" xmlns:xlink="http://www.w3.org/1999/xlink" viewBox="0 0 541.05 599.54"><defs><style>.cls-1,.cls-17{fill:#36b6e6;}.cls-2{fill:#e54c38;}.cls-3{clip-path:url(#clip-path);}.cls-4{fill:#177591;}.cls-16,.cls-18,.cls-5{fill:#fff;}.cls-6{fill:#000021;}.cls-7{opacity:0.57;}.cls-8{fill:none;}.cls-9{opacity:0.51;}.cls-10{opacity:0.58;}.cls-11{opacity:0.43;}.cls-12{fill:url(#linear-gradient);}.cls-13{fill:url(#linear-gradient-2);}.cls-14{clip-path:url(#clip-path-2);}.cls-15{fill:#898989;}.cls-16,.cls-17{fill-opacity:0.67;}.cls-17{stroke:#898989;stroke-miterlimit:10;stroke-width:2px;}.cls-18{fill-opacity:0.6;}.cls-19{fill:url(#linear-gradient-3);}.cls-20{fill:#ef5c0a;}.cls-21{fill:#f9cd6b;}</style><clipPath id="clip-path"><path id="_Polygon_" data-name="&lt;Polygon&gt;" class="cls-1" d="M531.28,429.83V171.4a36,36,0,0,0-18-31.18L289.47,11a36,36,0,0,0-36,0L29.67,140.22a36,36,0,0,0-18,31.18V429.83a36,36,0,0,0,18,31.17l223.8,129.22a36,36,0,0,0,36,0L513.28,461A36,36,0,0,0,531.28,429.83Z"/></clipPath><linearGradient id="linear-gradient" x1="184.15" y1="225.31" x2="184.15" y2="197.43" gradientUnits="userSpaceOnUse"><stop offset="0.15" stop-color="#fff" stop-opacity="0"/><stop offset="1" stop-color="#fff" stop-opacity="0.2"/></linearGradient><linearGradient id="linear-gradient-2" x1="355.65" y1="374.45" x2="355.65" y2="346.57" gradientTransform="translate(-0.21 -1.19)" xlink:href="#linear-gradient"/><clipPath id="clip-path-2"><path id="_Clipping_Path_" data-name="&lt;Clipping Path&gt;" class="cls-2" d="M274.15,137.32v-.49l-.14.24-.14-.24v.49c-4.64,8-64.37,114.34-14.6,187.75h29.48C338.52,251.66,278.79,145.33,274.15,137.32Z"/></clipPath><linearGradient id="linear-gradient-3" x1="272.88" y1="443.42" x2="272.88" y2="348" gradientUnits="userSpaceOnUse"><stop offset="0.04" stop-color="#fff" stop-opacity="0"/><stop offset="0.79" stop-color="#c9c9c9"/><stop offset="1" stop-color="#c9c9c9"/></linearGradient></defs><title>Artboard 1</title><g id="Layer_1" data-name="Layer 1"><path id="_Polygon_2" data-name="&lt;Polygon&gt;" class="cls-1" d="M531.28,429.83V171.4a36,36,0,0,0-18-31.18L289.47,11a36,36,0,0,0-36,0L29.67,140.22a36,36,0,0,0-18,31.18V429.83a36,36,0,0,0,18,31.17l223.8,129.22a36,36,0,0,0,36,0L513.28,461A36,36,0,0,0,531.28,429.83Z"/><g class="cls-3"><polyline class="cls-4" points="448.73 189.42 645.16 385.85 393.83 637.18 215.66 459.02 448.73 189.42"/></g></g><g id="night"><path class="cls-5" d="M458.1,387.58V213.65a36,36,0,0,0-18-31.18l-150.63-87a36,36,0,0,0-36,0l-150.63,87a36,36,0,0,0-18,31.18V387.58a36,36,0,0,0,18,31.17l150.63,87a36,36,0,0,0,36,0l150.63-87A36,36,0,0,0,458.1,387.58Z"/><path class="cls-6" d="M431.82,372.4V228.82a36,36,0,0,0-18-31.18L289.47,125.85a36,36,0,0,0-36,0L129.13,197.64a36,36,0,0,0-18,31.18V372.4a36,36,0,0,0,18,31.18l124.34,71.79a36,36,0,0,0,36,0l124.35-71.79A36,36,0,0,0,431.82,372.4Z"/></g><g id="woo"><g class="cls-7"><rect class="cls-8" x="142.65" y="361.33" width="2.68" height="2.68" transform="translate(-123.63 78.7) rotate(-21.65)"/><circle class="cls-5" cx="143.99" cy="362.67" r="1.34"/><rect class="cls-8" x="167.76" y="375.41" width="6.61" height="6.61" transform="translate(-133.06 95.53) rotate(-22.73)"/><circle class="cls-5" cx="171.07" cy="378.71" r="3.31"/><rect class="cls-8" x="188.08" y="376.18" width="4.99" height="4.99" transform="translate(-69.48 43.89) rotate(-11.12)"/><circle class="cls-5" cx="190.58" cy="378.68" r="2.5"/><rect class="cls-8" x="207.8" y="350.62" width="2.59" height="2.59" transform="translate(-73.18 55.46) rotate(-12.88)"/><circle class="cls-5" cx="209.09" cy="351.92" r="1.29"/><rect class="cls-8" x="233.3" y="378.1" width="7.08" height="7.08" transform="translate(-125.57 116.31) rotate(-21.97)"/><circle class="cls-5" cx="236.84" cy="381.64" r="3.54"/><rect class="cls-8" x="251.51" y="362.11" width="6.4" height="6.4" transform="translate(-110.55 110.53) rotate(-20.22)"/><circle class="cls-5" cx="254.72" cy="365.31" r="3.2"/><rect class="cls-8" x="270.53" y="333.79" width="6.3" height="6.3" transform="translate(-112.64 138.99) rotate(-23.78)"/><circle class="cls-5" cx="273.68" cy="336.94" r="3.15"/><rect class="cls-8" x="309.25" y="355.57" width="7.96" height="7.96" transform="translate(-58.06 60.33) rotate(-10.07)"/><circle class="cls-5" cx="313.24" cy="359.55" r="3.98"/><rect class="cls-8" x="286.85" y="299.04" width="2.5" height="2.5" transform="translate(-89.81 126.05) rotate(-21.43)"/><circle class="cls-5" cx="288.1" cy="300.29" r="1.25"/><rect class="cls-8" x="319.8" y="286.3" width="2.28" height="2.28" transform="translate(-59.07 84.42) rotate(-13.73)"/><circle class="cls-5" cx="320.94" cy="287.44" r="1.14"/><rect class="cls-8" x="342.85" y="284.53" width="6.83" height="6.83" transform="translate(-61.31 96.38) rotate(-14.57)"/><circle class="cls-5" cx="346.26" cy="287.95" r="3.41"/><rect class="cls-8" x="363.02" y="283.09" width="4.87" height="4.87" transform="matrix(0.96, -0.29, 0.29, 0.96, -66.98, 117.94)"/><circle class="cls-5" cx="365.46" cy="285.52" r="2.43"/><rect class="cls-8" x="364.25" y="252.55" width="7.8" height="7.8" transform="translate(-38.62 67.14) rotate(-9.9)"/><circle class="cls-5" cx="368.16" cy="256.45" r="3.9"/><rect class="cls-8" x="387.38" y="250.71" width="6.62" height="6.62" transform="translate(-63.53 149.88) rotate(-20.12)"/><circle class="cls-5" cx="390.69" cy="254.02" r="3.31"/><rect class="cls-8" x="404.48" y="209.39" width="8.04" height="8.04" transform="translate(-48.93 157.1) rotate(-20.57)"/><circle class="cls-5" cx="408.5" cy="213.41" r="4.02"/></g><g class="cls-9"><rect class="cls-8" x="207.17" y="418.72" width="3.41" height="3.41" transform="translate(-93.09 60.97) rotate(-13.61)"/><circle class="cls-5" cx="208.87" cy="420.43" r="1.7"/><rect class="cls-8" x="190.38" y="376.73" width="2.35" height="2.35" transform="translate(-96.63 67.33) rotate(-15.98)"/><circle class="cls-5" cx="191.55" cy="377.91" r="1.18"/><rect class="cls-8" x="214.3" y="369.12" width="6.5" height="6.5" transform="translate(-89.29 69.32) rotate(-15.06)"/><circle class="cls-5" cx="217.55" cy="372.37" r="3.25"/><rect class="cls-8" x="221.22" y="347.85" width="2.76" height="2.76" transform="matrix(0.97, -0.25, 0.25, 0.97, -80.63, 67.16)"/><circle class="cls-5" cx="222.6" cy="349.23" r="1.38"/><rect class="cls-8" x="282.77" y="355.67" width="2.13" height="2.13" transform="matrix(0.96, -0.27, 0.27, 0.96, -84.42, 88.02)"/><circle class="cls-5" cx="283.84" cy="356.74" r="1.07"/><rect class="cls-8" x="254.63" y="311.82" width="6.2" height="6.2" transform="matrix(0.96, -0.28, 0.28, 0.96, -78.59, 85.82)"/><circle class="cls-5" cx="257.72" cy="314.92" r="3.1"/><rect class="cls-8" x="311.96" y="299.16" width="5.45" height="5.45" transform="translate(-76.02 108.22) rotate(-17.44)"/><circle class="cls-5" cx="314.68" cy="301.88" r="2.72"/><rect class="cls-8" x="283.09" y="274.58" width="5.15" height="5.15" transform="translate(-69.2 96.91) rotate(-17.21)"/><circle class="cls-5" cx="285.67" cy="277.15" r="2.57"/><rect class="cls-8" x="287.76" y="245.02" width="2.27" height="2.27" transform="translate(-52.39 80.1) rotate(-14.49)"/><circle class="cls-5" cx="288.89" cy="246.16" r="1.13"/><rect class="cls-8" x="247.03" y="236.51" width="3.82" height="3.82" transform="translate(-51.65 69.71) rotate(-14.46)"/><circle class="cls-5" cx="248.94" cy="238.42" r="1.91"/><rect class="cls-8" x="274.17" y="211.57" width="3.51" height="3.51" transform="translate(-40.57 66.78) rotate(-12.86)"/><circle class="cls-5" cx="275.93" cy="213.33" r="1.75"/><rect class="cls-8" x="234.48" y="191.03" width="6.45" height="6.45" transform="translate(-32.85 49.21) rotate(-11.06)"/><circle class="cls-5" cx="237.7" cy="194.25" r="3.22"/><rect class="cls-8" x="267.23" y="172.58" width="3.75" height="3.75" transform="translate(-33.1 67.09) rotate(-13.4)"/><circle class="cls-5" cx="269.11" cy="174.45" r="1.87"/><rect class="cls-8" x="290.61" y="161.94" width="3.55" height="3.55" transform="translate(-25.07 56.43) rotate(-10.57)"/><circle class="cls-5" cx="292.38" cy="163.71" r="1.77"/><rect class="cls-8" x="255.31" y="114.86" width="7.47" height="7.47" transform="matrix(0.94, -0.35, 0.35, 0.94, -25.03, 96.91)"/><circle class="cls-5" cx="259.05" cy="118.6" r="3.74"/></g><g class="cls-10"><rect class="cls-8" x="421.65" y="333.21" width="3.41" height="3.41" transform="translate(-66.93 109.05) rotate(-13.61)"/><circle class="cls-5" cx="423.36" cy="334.91" r="1.7"/><rect class="cls-8" x="378.86" y="348.95" width="2.35" height="2.35" transform="translate(-81.7 118.15) rotate(-15.98)"/><circle class="cls-5" cx="380.03" cy="350.13" r="1.18"/><rect class="cls-8" x="372.53" y="320.64" width="6.5" height="6.5" transform="translate(-71.26 108.77) rotate(-15.06)"/><circle class="cls-5" cx="375.78" cy="323.89" r="3.25"/><rect class="cls-8" x="351.53" y="316.33" width="2.76" height="2.76" transform="matrix(0.97, -0.25, 0.25, 0.97, -68.53, 98.9)"/><circle class="cls-5" cx="352.91" cy="317.71" r="1.38"/><rect class="cls-8" x="362.34" y="255.85" width="2.13" height="2.13" transform="translate(-55.11 105.54) rotate(-15.37)"/><circle class="cls-5" cx="363.41" cy="256.91" r="1.07"/><rect class="cls-8" x="317.26" y="277.85" width="6.2" height="6.2" transform="matrix(0.96, -0.28, 0.28, 0.96, -66.42, 102.16)"/><circle class="cls-5" cx="320.36" cy="280.95" r="3.1"/><rect class="cls-8" x="307.41" y="220.7" width="5.45" height="5.45" transform="translate(-52.71 103.24) rotate(-17.44)"/><circle class="cls-5" cx="310.13" cy="223.42" r="2.72"/><rect class="cls-8" x="281.44" y="248.62" width="5.15" height="5.15" transform="translate(-61.59 95.25) rotate(-17.21)"/><circle class="cls-5" cx="284.01" cy="251.19" r="2.57"/><rect class="cls-8" x="252.08" y="245.31" width="2.27" height="2.27" transform="translate(-53.6 71.18) rotate(-14.49)"/><circle class="cls-5" cx="253.21" cy="246.45" r="1.13"/><rect class="cls-8" x="241.62" y="284.07" width="3.82" height="3.82" transform="translate(-63.7 69.87) rotate(-14.46)"/><circle class="cls-5" cx="243.53" cy="285.98" r="1.91"/><rect class="cls-8" x="218.03" y="256.04" width="3.51" height="3.51" transform="translate(-51.87 55.4) rotate(-12.86)"/><circle class="cls-5" cx="219.78" cy="257.79" r="1.75"/><rect class="cls-8" x="195.64" y="291.81" width="6.45" height="6.45" transform="translate(-52.9 43.63) rotate(-11.06)"/><circle class="cls-5" cx="198.86" cy="295.04" r="3.22"/><rect class="cls-8" x="178.75" y="260.83" width="3.75" height="3.75" transform="translate(-55.95 48.99) rotate(-13.4)"/><circle class="cls-5" cx="180.62" cy="262.7" r="1.87"/><rect class="cls-8" x="169.26" y="237.16" width="3.55" height="3.55" transform="translate(-40.94 35.44) rotate(-10.57)"/><circle class="cls-5" cx="171.04" cy="238.93" r="1.77"/><rect class="cls-8" x="120.61" y="266.27" width="7.47" height="7.47" transform="matrix(0.94, -0.35, 0.35, 0.94, -85.71, 59.67)"/><circle class="cls-5" cx="124.34" cy="270.01" r="3.74"/></g><g class="cls-11"><rect class="cls-8" x="171.3" y="371.62" width="7.66" height="7.66" transform="translate(-134.06 99.71) rotate(-23.27)"/><circle class="cls-5" cx="175.13" cy="375.45" r="3.83"/><rect class="cls-8" x="173.56" y="402.22" width="5.51" height="5.51" transform="matrix(0.94, -0.35, 0.35, 0.94, -131.08, 87.8)"/><circle class="cls-5" cx="176.31" cy="404.97" r="2.75"/><rect class="cls-8" x="206.61" y="402.82" width="5.87" height="5.87" transform="translate(-83.62 55.61) rotate(-12.63)"/><circle class="cls-5" cx="209.54" cy="405.75" r="2.94"/><rect class="cls-8" x="230.97" y="392.44" width="3.61" height="3.61" transform="matrix(0.96, -0.29, 0.29, 0.96, -104.18, 84.29)"/><circle class="cls-5" cx="232.78" cy="394.25" r="1.81"/><rect class="cls-8" x="251.35" y="383.38" width="4.6" height="4.6" transform="translate(-69.84 56.38) rotate(-11.16)"/><circle class="cls-5" cx="253.65" cy="385.68" r="2.3"/><rect class="cls-8" x="272.38" y="436.99" width="7.01" height="7.01" transform="translate(-101.94 83.57) rotate(-14.57)"/><circle class="cls-5" cx="275.88" cy="440.49" r="3.5"/><rect class="cls-8" x="292.44" y="421.51" width="7.43" height="7.43" transform="translate(-116.65 111.99) rotate(-17.95)"/><circle class="cls-5" cx="296.16" cy="425.22" r="3.71"/><rect class="cls-8" x="316.03" y="398.95" width="2.66" height="2.66" transform="translate(-121.09 138.16) rotate(-20.72)"/><circle class="cls-5" cx="317.36" cy="400.28" r="1.33"/><rect class="cls-8" x="323.94" y="364.7" width="5.43" height="5.43" transform="translate(-105.95 133.85) rotate(-20)"/><circle class="cls-5" cx="326.66" cy="367.42" r="2.71"/><rect class="cls-8" x="352.95" y="380.17" width="3.32" height="3.32" transform="translate(-108.82 143.55) rotate(-19.91)"/><circle class="cls-5" cx="354.61" cy="381.83" r="1.66"/><rect class="cls-8" x="369.99" y="369.5" width="2.27" height="2.27" transform="translate(-101.62 143.45) rotate(-19.29)"/><circle class="cls-5" cx="371.12" cy="370.64" r="1.13"/><rect class="cls-8" x="397.4" y="366.01" width="3.98" height="3.98" transform="translate(-81.44 115.54) rotate(-14.96)"/><circle class="cls-5" cx="399.39" cy="367.99" r="1.99"/></g></g><g id="Layer_9" data-name="Layer 9"><path class="cls-12" d="M229.48,206.72H213.67a4.66,4.66,0,0,0,4.64-4.64h0a4.66,4.66,0,0,0-4.64-4.65H148.75a4.66,4.66,0,0,0-4.64,4.65h0a4.66,4.66,0,0,0,4.64,4.64h15.82a4.65,4.65,0,0,0,0,9.3H138.82a4.65,4.65,0,1,0,0,9.29h79.92a4.65,4.65,0,0,0,0-9.29h10.74a4.65,4.65,0,1,0,0-9.3Z"/><path class="cls-13" d="M400.77,354.67H385A4.66,4.66,0,0,0,389.6,350h0a4.66,4.66,0,0,0-4.64-4.65H320A4.66,4.66,0,0,0,315.4,350h0a4.66,4.66,0,0,0,4.64,4.64h15.82a4.65,4.65,0,1,0,0,9.29H310.11a4.65,4.65,0,0,0,0,9.29H390a4.65,4.65,0,0,0,0-9.29h10.74a4.65,4.65,0,1,0,0-9.29Z"/></g><g id="rocket"><path class="cls-4" d="M299.88,247.45v33s48.36,22.21,38.33,59.3C338.21,339.73,366.35,270.25,299.88,247.45Z"/><path class="cls-4" d="M248.07,246.31v33s-48.36,22.21-38.33,59.3C209.74,338.6,181.6,269.11,248.07,246.31Z"/><path id="_Clipping_Path_2" data-name="&lt;Clipping Path&gt;" class="cls-2" d="M274.15,137.32v-.49l-.14.24-.14-.24v.49c-4.64,8-64.37,114.34-14.6,187.75h29.48C338.52,251.66,278.79,145.33,274.15,137.32Z"/><g class="cls-14"><rect class="cls-4" x="251.09" y="178" width="46.85" height="3.39"/></g><path class="cls-15" d="M288.68,325.07H259.27s-3.38,11.28,0,14.66h29.41C292.06,336.35,288.68,325.07,288.68,325.07Z"/><circle class="cls-16" cx="274.01" cy="217.53" r="15.04"/><circle class="cls-17" cx="274.01" cy="217.65" r="15.04"/><path class="cls-18" d="M267.4,207.93s-13.94,6.8,0,20.74C267.4,228.67,257.65,217.67,267.4,207.93Z"/><path class="cls-8" d="M235.91,432.63l0,.09.09-.1Z"/><path class="cls-19" d="M324.86,432.67a10.74,10.74,0,0,0-10.54-10.73,7.83,7.83,0,0,0-1.25-1.6,7.77,7.77,0,0,0-4.78-9.5,7.67,7.67,0,0,0,.15-1.45,7.76,7.76,0,0,0-7.77-7.76,7.56,7.56,0,0,0-1.72.2,7.68,7.68,0,0,0-3.38-3.22,5,5,0,0,0-3.41-8.62,5.16,5.16,0,0,0-1.25.16,7.64,7.64,0,0,0-2.43-2.37L287.63,348,260,351.49v32.72a7.65,7.65,0,0,0-2.2-.32,7.76,7.76,0,0,0-4.91,13.77,7.72,7.72,0,0,0-3,4.57,17.18,17.18,0,0,0-1.77-.1,15.28,15.28,0,0,0-15.28,15.27s0,.07,0,.11a7.76,7.76,0,0,0-4.9,10.19,7.76,7.76,0,1,0,4,14.77l81.42.91c.26,0,.52,0,.79,0l.51,0,2.28,0-.2-.33A10.75,10.75,0,0,0,324.86,432.67Zm-89,0H236l-.09.1Z"/><path class="cls-20" d="M260,339.73s-5.77,6,0,11.76,14.53,24.09,14.53,24.09,8.68-23.21,13.2-26,1.32-9.87,1.32-9.87Z"/><path class="cls-21" d="M265.77,339.73s-3.34,3.48,0,6.82,8.42,14,8.42,14,5-13.45,7.65-15.06.76-5.72.76-5.72Z"/><path class="cls-4" d="M274,245.49v84.23S254,247.91,274,245.49Z"/><path class="cls-4" d="M274.13,245.49l-.29,84.23S294.08,248,274.13,245.49Z"/></g></svg>