<svg id="Layer_1" data-name="Layer 1" xmlns="http://www.w3.org/2000/svg" xmlns:xlink="http://www.w3.org/1999/xlink" viewBox="0 0 488.11 553.47"><defs><style>.cls-1{fill:none;}.cls-2{fill:#fff;}.cls-3{fill:#36b6e6;}.cls-4{clip-path:url(#clip-path);}.cls-5{fill:#117398;}.cls-6{fill:#36e6bf;}</style><clipPath id="clip-path"><path class="cls-1" d="M477.91,388.58V156a35,35,0,0,0-17.5-30.31L259,9.34a35,35,0,0,0-35,0L22.5,125.65A35,35,0,0,0,5,156V388.58A35,35,0,0,0,22.5,418.9L224,535.21a35,35,0,0,0,35,0L460.41,418.9A35,35,0,0,0,477.91,388.58Z"/></clipPath></defs><title>Artboard 2</title><path class="cls-2" d="M476.73,390.44V246.94a35,35,0,0,0-17.5-30.31L335,144.88a35,35,0,0,0-35,0L175.69,216.63a35,35,0,0,0-17.5,30.31v143.5a35,35,0,0,0,17.5,30.31L300,492.49a35,35,0,0,0,35,0l124.27-71.74A35,35,0,0,0,476.73,390.44Z"/><path class="cls-3" d="M477.91,389V156.38a35,35,0,0,0-17.5-30.31L259,9.76a35,35,0,0,0-35,0L22.5,126.07A35,35,0,0,0,5,156.38V389a35,35,0,0,0,17.5,30.31L224,535.62a35,35,0,0,0,35,0L460.41,419.31A35,35,0,0,0,477.91,389Z"/><g class="cls-4"><polygon class="cls-5" points="237.77 450.57 285.72 519.76 642 338.81 398.86 189.25 237.77 450.57"/></g><path class="cls-2" d="M398.56,343.81V200.32A35,35,0,0,0,381.06,170L256.79,98.26a35,35,0,0,0-35,0L97.52,170A35,35,0,0,0,80,200.32V343.81a35,35,0,0,0,17.5,30.31l124.27,71.75a35,35,0,0,0,35,0l124.27-71.75A35,35,0,0,0,398.56,343.81Z"/><path class="cls-6" d="M270.24,164.35h44.22L277.25,341.22c-9.15,43.61-35.37,51.84-55.5,51.84-18.6,0-36-13.11-36-32.93,0-28.36,23.78-37.21,52.75-45.74l2.75-12.81c-8.84,9.45-20.74,17.07-36.59,17.07-20.74,0-40.56-12.8-40.56-49.09,0-41.17,25.31-106.73,78.37-106.73,17.38,0,24.7,6.71,24.7,16.16Zm-55.5,201.57c6.4,0,14-5.79,18-23.78l3.66-18c-19.21,6.41-33.85,15.25-33.85,31.72C202.54,360.13,208,365.92,214.74,365.92Zm-5.49-100.63c0,23.48,9.76,23.78,15.25,23.78,8.23,0,21-7.31,24.39-22.87l15.56-73.79c-.61-4-3.36-10.68-12.51-10.68C226,181.73,209.25,236.62,209.25,265.29Z"/></svg>